# xmcd
#
# Track frame offsets: 
#        150
#        15045
#        39935
#        57228
#        69685
#        89295
#        102713
#        115243
#        130410
#        144885
#        157678
#        179600
#        193133
#
# Disc length: 2832 seconds
#
# Revision: 2
# Processed by: cddbd v1.5.2PL0 Copyright (c) Steve Scherf et al.
# Submitted via: ExactAudioCopy v1.0b4
#
DISCID=aa0b0e0d
DTITLE=Smokin' Joe Kubek Band - Chain Smokin' Texas Style
DYEAR=1992
DGENRE=Texas Blues
TTITLE0=Way Down There
TTITLE1=Just For A Little While
TTITLE2=Love To Live The Life
TTITLE3=That's What I'll Do For You
TTITLE4=Little Girl
TTITLE5=Good Understanding
TTITLE6=Overdues
TTITLE7=Come By Here
TTITLE8=I'm On My Way
TTITLE9=Chain Smokin'
TTITLE10=Walk With You
TTITLE11=Soft Touch
TTITLE12=Can't Quit My Baby
EXTD=
EXTT0=
EXTT1=
EXTT2=
EXTT3=
EXTT4=
EXTT5=
EXTT6=
EXTT7=
EXTT8=
EXTT9=
EXTT10=
EXTT11=
EXTT12=
PLAYORDER=
